<svg width="100%" viewBox="0 0 680 320" role="img" xmlns="http://www.w3.org/2000/svg">
<title>Offshore pedestal crane — blueprint</title>
<desc>Technische lijntekening van een offshore pedestal-kraan met lattice-giek in staalblauw en de hijslast plus hijslijn in safety orange, met mono maatlabels.</desc>
<rect x="0" y="0" width="680" height="320" fill="#0A1628"/>
<g stroke="#12243A" stroke-width="0.5">
<line x1="40" y1="24" x2="40" y2="312"/><line x1="120" y1="24" x2="120" y2="312"/><line x1="200" y1="24" x2="200" y2="312"/><line x1="280" y1="24" x2="280" y2="312"/><line x1="360" y1="24" x2="360" y2="312"/><line x1="440" y1="24" x2="440" y2="312"/><line x1="520" y1="24" x2="520" y2="312"/><line x1="600" y1="24" x2="600" y2="312"/>
<line x1="24" y1="40" x2="656" y2="40"/><line x1="24" y1="120" x2="656" y2="120"/><line x1="24" y1="200" x2="656" y2="200"/><line x1="24" y1="280" x2="656" y2="280"/>
</g>
<g stroke="#2A4258" stroke-width="0.8">
<line x1="46" y1="40" x2="46" y2="52"/><line x1="40" y1="46" x2="52" y2="46"/>
<line x1="634" y1="300" x2="634" y2="312"/><line x1="628" y1="306" x2="640" y2="306"/>
</g>
<line x1="110" y1="250" x2="540" y2="250" stroke="#8FB4D6" stroke-width="1.2"/>
<g stroke="#3E5C78" stroke-width="0.8">
<line x1="140" y1="250" x2="132" y2="258"/><line x1="200" y1="250" x2="192" y2="258"/><line x1="260" y1="250" x2="252" y2="258"/><line x1="320" y1="250" x2="312" y2="258"/><line x1="380" y1="250" x2="372" y2="258"/><line x1="440" y1="250" x2="432" y2="258"/><line x1="500" y1="250" x2="492" y2="258"/>
</g>
<polyline points="152,250 158,190 172,190 178,250" fill="none" stroke="#8FB4D6" stroke-width="1.2" stroke-linejoin="round"/>
<polyline points="130,190 130,162 210,162 210,190" fill="none" stroke="#8FB4D6" stroke-width="1.2" stroke-linejoin="round"/>
<rect x="114" y="166" width="16" height="24" fill="none" stroke="#8FB4D6" stroke-width="1"/>
<line x1="205" y1="185" x2="478" y2="86" stroke="#8FB4D6" stroke-width="1.1"/>
<line x1="200" y1="176" x2="473" y2="77" stroke="#8FB4D6" stroke-width="1.1"/>
<polyline points="205,185 250,158 300,148 355,121 410,109 473,77" fill="none" stroke="#8FB4D6" stroke-width="0.8"/>
<line x1="475" y1="80" x2="130" y2="162" stroke="#8FB4D6" stroke-width="1"/>
<line x1="165" y1="190" x2="165" y2="266" stroke="#3A5168" stroke-width="0.8" stroke-dasharray="3 5"/>
<line x1="476" y1="243" x2="476" y2="266" stroke="#3A5168" stroke-width="0.8" stroke-dasharray="3 5"/>
<g stroke="#FF6A2C" fill="none">
<line x1="476" y1="82" x2="476" y2="206" stroke-width="1.4"/>
<rect x="471" y="206" width="10" height="8" stroke-width="1.2"/>
<line x1="476" y1="214" x2="458" y2="213" stroke-width="1"/>
<line x1="476" y1="214" x2="494" y2="213" stroke-width="1"/>
<rect x="456" y="213" width="40" height="30" stroke-width="1.4"/>
<line x1="456" y1="228" x2="496" y2="228" stroke-width="0.9"/>
<line x1="469" y1="213" x2="469" y2="243" stroke-width="0.9"/>
<line x1="483" y1="213" x2="483" y2="243" stroke-width="0.9"/>
</g>
<circle cx="476" cy="206" r="3" fill="#FF6A2C"/>
<line x1="476" y1="206" x2="545" y2="118" stroke="#FF6A2C" stroke-width="1" stroke-dasharray="4 4"/>
<text x="553" y="122" font-family="'Space Mono', ui-monospace, 'Courier New', monospace" font-size="13" fill="#FF6A2C">SWL 250 t</text>
<line x1="165" y1="266" x2="476" y2="266" stroke="#5C7A98" stroke-width="1" stroke-dasharray="5 4"/>
<line x1="165" y1="261" x2="165" y2="271" stroke="#5C7A98" stroke-width="1"/>
<line x1="476" y1="261" x2="476" y2="271" stroke="#5C7A98" stroke-width="1"/>
<text x="320" y="283" font-family="'Space Mono', ui-monospace, 'Courier New', monospace" font-size="12" fill="#9DB4CC" text-anchor="middle">radius 12 m</text>
<text x="640" y="288" font-family="'Space Mono', ui-monospace, 'Courier New', monospace" font-size="11" fill="#FF6A2C" text-anchor="end" letter-spacing="2">OFFSHORE PEDESTAL CRANE</text>
<text x="640" y="304" font-family="'Space Mono', ui-monospace, 'Courier New', monospace" font-size="12" fill="#9DB4CC" text-anchor="end">lattice boom · 360° slew</text>
</svg>
