<svg width="100%" viewBox="0 0 680 340" role="img" xmlns="http://www.w3.org/2000/svg">
<title>Rigging arrangement — blueprint</title>
<desc>Technische lijntekening van een hijsopstelling: masterlink, bow-shackle in safety orange, twee-legs strop naar een last in staalblauw, met sling-hoek en mono maatlabels.</desc>
<rect x="0" y="0" width="680" height="340" fill="#0A1628"/>
<g stroke="#12243A" stroke-width="0.5">
<line x1="40" y1="24" x2="40" y2="332"/><line x1="120" y1="24" x2="120" y2="332"/><line x1="200" y1="24" x2="200" y2="332"/><line x1="280" y1="24" x2="280" y2="332"/><line x1="360" y1="24" x2="360" y2="332"/><line x1="440" y1="24" x2="440" y2="332"/><line x1="520" y1="24" x2="520" y2="332"/><line x1="600" y1="24" x2="600" y2="332"/>
<line x1="24" y1="40" x2="656" y2="40"/><line x1="24" y1="120" x2="656" y2="120"/><line x1="24" y1="200" x2="656" y2="200"/><line x1="24" y1="280" x2="656" y2="280"/>
</g>
<g stroke="#2A4258" stroke-width="0.8">
<line x1="46" y1="40" x2="46" y2="52"/><line x1="40" y1="46" x2="52" y2="46"/>
<line x1="634" y1="320" x2="634" y2="332"/><line x1="628" y1="326" x2="640" y2="326"/>
</g>
<ellipse cx="340" cy="62" rx="13" ry="22" fill="none" stroke="#8FB4D6" stroke-width="3"/>
<g fill="none" stroke="#FF6A2C">
<path d="M324 98 C308 120 308 152 340 158 C372 152 372 120 356 98" stroke-width="2.5"/>
<line x1="322" y1="96" x2="358" y2="96" stroke-width="3"/>
</g>
<circle cx="320" cy="96" r="3" fill="#FF6A2C"/>
<circle cx="360" cy="96" r="3" fill="#FF6A2C"/>
<line x1="336" y1="156" x2="252" y2="246" stroke="#8FB4D6" stroke-width="1.6"/>
<line x1="344" y1="156" x2="428" y2="246" stroke="#8FB4D6" stroke-width="1.6"/>
<ellipse cx="251" cy="247" rx="5" ry="7" fill="none" stroke="#8FB4D6" stroke-width="1.4"/>
<ellipse cx="429" cy="247" rx="5" ry="7" fill="none" stroke="#8FB4D6" stroke-width="1.4"/>
<g fill="none" stroke="#FF6A2C" stroke-width="1.6">
<path d="M245 252 C242 258 242 262 251 264 C260 262 260 258 257 252"/>
<line x1="244" y1="251" x2="258" y2="251" stroke-width="2"/>
<path d="M423 252 C420 258 420 262 429 264 C438 262 438 258 435 252"/>
<line x1="422" y1="251" x2="436" y2="251" stroke-width="2"/>
</g>
<polygon points="247,250 251,242 255,250" fill="none" stroke="#8FB4D6" stroke-width="1"/>
<polygon points="425,250 429,242 433,250" fill="none" stroke="#8FB4D6" stroke-width="1"/>
<rect x="230" y="250" width="220" height="36" fill="none" stroke="#8FB4D6" stroke-width="1.4"/>
<line x1="230" y1="268" x2="450" y2="268" stroke="#8FB4D6" stroke-width="0.8"/>
<line x1="290" y1="250" x2="290" y2="286" stroke="#8FB4D6" stroke-width="0.8"/>
<line x1="360" y1="250" x2="360" y2="286" stroke="#8FB4D6" stroke-width="0.8"/>
<line x1="410" y1="250" x2="410" y2="286" stroke="#8FB4D6" stroke-width="0.8"/>
<line x1="340" y1="158" x2="340" y2="206" stroke="#3A5168" stroke-width="0.8" stroke-dasharray="3 5"/>
<path d="M312 186 Q340 202 368 186" fill="none" stroke="#5C7A98" stroke-width="1" stroke-dasharray="4 4"/>
<text x="340" y="210" font-family="'Space Mono', ui-monospace, 'Courier New', monospace" font-size="12" fill="#9DB4CC" text-anchor="middle">sling angle 60°</text>
<circle cx="358" cy="120" r="3" fill="#FF6A2C"/>
<line x1="358" y1="120" x2="450" y2="88" stroke="#FF6A2C" stroke-width="1" stroke-dasharray="4 4"/>
<text x="458" y="92" font-family="'Space Mono', ui-monospace, 'Courier New', monospace" font-size="12" fill="#FF6A2C">bow shackle · WLL 85 t</text>
<text x="340" y="308" font-family="'Space Mono', ui-monospace, 'Courier New', monospace" font-size="12" fill="#9DB4CC" text-anchor="middle">gross load 180 t</text>
<text x="640" y="312" font-family="'Space Mono', ui-monospace, 'Courier New', monospace" font-size="11" fill="#FF6A2C" text-anchor="end" letter-spacing="2">RIGGING ARRANGEMENT</text>
<text x="640" y="328" font-family="'Space Mono', ui-monospace, 'Courier New', monospace" font-size="12" fill="#9DB4CC" text-anchor="end">2-leg bridle · 60° angle</text>
</svg>
